<svg width="100%" viewBox="0 0 680 300" role="img" xmlns="http://www.w3.org/2000/svg" style="">
  <title style="fill:rgb(0, 0, 0);stroke:none;color:rgb(0, 0, 0);stroke-width:1px;stroke-linecap:butt;stroke-linejoin:miter;opacity:1;font-family:&quot;Anthropic Sans&quot;, -apple-system, BlinkMacSystemFont, &quot;Segoe UI&quot;, sans-serif;font-size:16px;font-weight:400;text-anchor:start;dominant-baseline:auto">Psychology favicon icon</title>
  <desc style="fill:rgb(0, 0, 0);stroke:none;color:rgb(0, 0, 0);stroke-width:1px;stroke-linecap:butt;stroke-linejoin:miter;opacity:1;font-family:&quot;Anthropic Sans&quot;, -apple-system, BlinkMacSystemFont, &quot;Segoe UI&quot;, sans-serif;font-size:16px;font-weight:400;text-anchor:start;dominant-baseline:auto">A minimal brain icon representing psychology</desc>
  

  <text x="340" y="260" text-anchor="middle" style="font-size:13px;fill:var(--color-text-secondary);font-family:var(--font-sans);fill:rgb(61, 61, 58);stroke:none;color:rgb(0, 0, 0);stroke-width:1px;stroke-linecap:butt;stroke-linejoin:miter;opacity:1;font-family:&quot;Anthropic Sans&quot;, sans-serif;font-size:13px;font-weight:400;text-anchor:middle;dominant-baseline:auto">copy the SVG code below to use as your favicon</text>

  <rect x="270" y="30" width="140" height="140" rx="28" fill="#6C63FF" opacity="0.12" style="fill:rgb(108, 99, 255);stroke:none;color:rgb(0, 0, 0);stroke-width:1px;stroke-linecap:butt;stroke-linejoin:miter;opacity:0.12;font-family:&quot;Anthropic Sans&quot;, -apple-system, BlinkMacSystemFont, &quot;Segoe UI&quot;, sans-serif;font-size:16px;font-weight:400;text-anchor:start;dominant-baseline:auto"/>
  <g transform="translate(340,100)" style="fill:rgb(0, 0, 0);stroke:none;color:rgb(0, 0, 0);stroke-width:1px;stroke-linecap:butt;stroke-linejoin:miter;opacity:1;font-family:&quot;Anthropic Sans&quot;, -apple-system, BlinkMacSystemFont, &quot;Segoe UI&quot;, sans-serif;font-size:16px;font-weight:400;text-anchor:start;dominant-baseline:auto">
    <path d="&#10;      M-18,-38&#10;      C-18,-48 -8,-55 2,-52&#10;      C6,-60 18,-60 22,-50&#10;      C32,-52 40,-42 36,-32&#10;      C44,-28 46,-16 38,-10&#10;      C42,0 38,12 28,14&#10;      C28,22 20,28 10,26&#10;      L10,38&#10;      L-10,38&#10;      L-10,26&#10;      C-20,28 -28,22 -28,14&#10;      C-38,12 -42,0 -38,-10&#10;      C-46,-16 -44,-28 -36,-32&#10;      C-40,-42 -32,-52 -22,-50&#10;      C-18,-60 -6,-60 -2,-52&#10;    " style="fill:none;stroke:rgb(108, 99, 255);color:rgb(0, 0, 0);stroke-width:5px;stroke-linecap:round;stroke-linejoin:round;opacity:1;font-family:&quot;Anthropic Sans&quot;, -apple-system, BlinkMacSystemFont, &quot;Segoe UI&quot;, sans-serif;font-size:16px;font-weight:400;text-anchor:start;dominant-baseline:auto"/>
    <line x1="0" y1="-30" x2="0" y2="38" stroke-width="3" opacity="0.4" style="fill:none;stroke:rgb(108, 99, 255);color:rgb(0, 0, 0);stroke-width:5px;stroke-linecap:round;stroke-linejoin:round;opacity:0.4;font-family:&quot;Anthropic Sans&quot;, -apple-system, BlinkMacSystemFont, &quot;Segoe UI&quot;, sans-serif;font-size:16px;font-weight:400;text-anchor:start;dominant-baseline:auto"/>
    <path d="M-15,-10 Q-8,-18 0,-12 Q8,-18 15,-10" stroke-width="3" fill="none" style="fill:none;stroke:rgb(108, 99, 255);color:rgb(0, 0, 0);stroke-width:5px;stroke-linecap:round;stroke-linejoin:round;opacity:1;font-family:&quot;Anthropic Sans&quot;, -apple-system, BlinkMacSystemFont, &quot;Segoe UI&quot;, sans-serif;font-size:16px;font-weight:400;text-anchor:start;dominant-baseline:auto"/>
    <path d="M-20,8 Q-10,2 0,8 Q10,2 20,8" stroke-width="3" fill="none" style="fill:none;stroke:rgb(108, 99, 255);color:rgb(0, 0, 0);stroke-width:5px;stroke-linecap:round;stroke-linejoin:round;opacity:1;font-family:&quot;Anthropic Sans&quot;, -apple-system, BlinkMacSystemFont, &quot;Segoe UI&quot;, sans-serif;font-size:16px;font-weight:400;text-anchor:start;dominant-baseline:auto"/>
  </g>
</svg>