<?xml version="1.0" encoding="UTF-8"?>
<svg id="Ebene_1" data-name="Ebene 1" xmlns="http://www.w3.org/2000/svg" viewBox="0 0 624 301">
  <defs>
    <style>
      .cls-1 {
        fill: #006f96;
      }

      .cls-1, .cls-2, .cls-3, .cls-4, .cls-5, .cls-6, .cls-7, .cls-8 {
        stroke-width: 0px;
      }

      .cls-2 {
        fill: #1d1d1b;
      }

      .cls-3 {
        fill: #cf70a2;
      }

      .cls-4 {
        fill: #0078a2;
      }

      .cls-5 {
        fill: #006d96;
      }

      .cls-6 {
        fill: #9cd8f7;
      }

      .cls-7 {
        fill: #007fa4;
      }

      .cls-8 {
        fill: #b86ca1;
      }
    </style>
  </defs>
  <path class="cls-6" d="M138.46,40.2c-1.72.12-3.41.29-5.1.51,1.69-.22,3.39-.38,5.1-.51M144.39,39.97c-1.8,0-3.58.08-5.35.19,1.77-.12,3.55-.18,5.35-.19M222.44,159.73c-.61,1.37-1.25,2.73-1.93,4.06.68-1.33,1.32-2.69,1.93-4.06M224.7,154.13c-.6,1.66-1.24,3.29-1.94,4.9.69-1.61,1.34-3.24,1.94-4.9M226.3,149.16c-.41,1.42-.86,2.83-1.35,4.23.49-1.39.93-2.8,1.35-4.23M227.77,143.38c-.33,1.51-.7,3-1.1,4.48.4-1.48.77-2.97,1.1-4.48M228.82,137.56c-.25,1.74-.55,3.47-.9,5.18.36-1.71.65-3.44.9-5.18M229.41,132.16c-.11,1.37-.25,2.73-.42,4.08.17-1.35.32-2.71.42-4.08M229.71,125.28c0,1.81-.07,3.59-.19,5.37.11-1.78.19-3.57.19-5.37M133.36,40.7c-41.89,5.42-74.26,41.2-74.26,84.57,0,17.25,5.14,33.3,13.94,46.72-6.07,7.77-19.34,19.19-41.96,24.26,30.34,5.94,55.55-.48,63.2-1.97,14.07,10.24,31.39,16.29,50.12,16.29,32.86,0,61.35-18.58,75.61-45.8-.79,1.52-1.62,3.01-2.5,4.48-15.62,17.43-38.3,28.41-63.55,28.41-18.19,0-35.03-5.71-48.87-15.41-16.37-15.54-26.6-37.5-26.6-61.86,0-36.39,22.79-67.44,54.88-79.7"/>
  <path class="cls-3" d="M174.8,205.01c17.89-6.83,32.88-19.5,42.66-35.69.02-.02.04-.04.05-.06,0,0,0,0,0,0,13.52-15.1,21.76-35.03,21.76-56.89,0-24.35-10.21-46.33-26.57-61.87,22.02,15.43,36.41,40.99,36.41,69.91,0,43.38-32.39,79.21-74.3,84.6M101.41,178.56s0,0-.01-.02c0,0,.01.01.01.02M101.35,178.49c-.1-.1-.19-.21-.29-.31-.07-.07-.13-.14-.2-.21.16.17.32.35.48.52M100.86,177.97c-.54-.59-1.07-1.18-1.59-1.79.52.6,1.05,1.2,1.59,1.79M99.21,176.11c-.89-1.03-1.76-2.08-2.6-3.16.84,1.07,1.71,2.13,2.6,3.16M96.5,172.8c-.59-.76-1.18-1.53-1.74-2.32.57.78,1.15,1.56,1.74,2.32M94.75,170.48c-.21-.29-.42-.58-.63-.88.21.29.42.59.63.88M93.95,169.36c-.18-.26-.37-.52-.55-.79.18.26.36.53.55.79M93.4,168.57s0,0,0-.01c0,0,0,0,0,.01M93.4,168.56s-.03-.04-.04-.06c.01.02.03.04.04.06M93.35,168.5c-.53-.77-1.04-1.56-1.55-2.35.5.79,1.02,1.57,1.55,2.35M91.57,165.79c-.36-.58-.72-1.16-1.07-1.75.35.59.71,1.17,1.07,1.75M90.5,164.04c-.29-.48-.57-.96-.85-1.45.28.49.56.97.85,1.45M89.38,162.11c-.14-.25-.28-.51-.42-.76.14.26.28.51.42.76M88.96,161.35c-.44-.8-.86-1.6-1.27-2.41.41.81.83,1.62,1.27,2.41M87.37,158.31c-.36-.73-.71-1.46-1.05-2.2.34.74.69,1.47,1.05,2.2M86.32,156.11c-.14-.31-.28-.62-.42-.94.14.31.28.63.42.94M85.55,154.42c-.27-.61-.52-1.22-.77-1.84.25.62.5,1.23.77,1.84M84.78,152.58c-.17-.41-.33-.82-.49-1.24.16.41.32.83.49,1.24M83.93,150.42c-.16-.42-.31-.84-.46-1.27.15.42.3.85.46,1.27M83.47,149.16c-.2-.58-.4-1.16-.6-1.74.19.58.39,1.16.6,1.74M82.51,146.34c-.19-.58-.36-1.17-.53-1.76.17.59.35,1.18.53,1.76M81.98,144.58c-.11-.39-.23-.79-.34-1.18.11.4.22.79.34,1.18M81.3,142.18c-.15-.58-.29-1.17-.43-1.75.14.59.28,1.17.43,1.75M80.87,140.43c-.09-.38-.18-.76-.26-1.14.09.38.17.76.26,1.14M80.3,137.95c-.08-.38-.15-.76-.22-1.14.07.38.15.76.22,1.14M80.07,136.81c-.11-.57-.21-1.15-.31-1.72.1.58.2,1.15.31,1.72M79.51,133.65c-.14-.92-.26-1.86-.37-2.79.11.93.22,1.87.37,2.79M79.14,130.86s0-.06-.01-.09c0,.03,0,.06.01.09M78.95,129.29c-.05-.51-.1-1.02-.13-1.54.04.51.08,1.03.13,1.54M78.81,127.75c-.04-.51-.07-1.03-.11-1.54.03.51.07,1.03.11,1.54M229.71,125.28h0s0,0,0,0h0M229.71,125.28c0-47.11-38.2-85.31-85.31-85.31-.23,0-.46,0-.69,0,.22,0,.45,0,.67,0-.32,0-.63,0-.95,0-2.97.04-5.91.24-8.8.57-.42.05-.85.1-1.27.15.27-.03.54-.07.81-.1-.27.03-.54.07-.82.1-3.99,1.52-7.83,3.34-11.51,5.42,2.35-1.33,4.77-2.55,7.25-3.66,1.4-.62,2.82-1.21,4.26-1.76h0s0,0,0,0c3.62-.47,7.3-.74,11.04-.74,47.11,0,85.3,38.2,85.31,85.31h0M78.6,124.87c-.08-1.46-.12-2.92-.12-4.4,0,1.47.04,2.94.12,4.4M78.48,120.47v-.06h0v.06M78.48,120.4h0c0-2.03.1-4.03.24-6.02-.14,1.99-.24,4-.24,6.02M78.82,112.99c.17-1.96.39-3.91.69-5.82-.3,1.92-.52,3.87-.69,5.82M79.61,106.59c.29-1.79.65-3.55,1.04-5.29-.4,1.75-.75,3.51-1.04,5.29M80.94,100.09c.15-.62.31-1.25.48-1.86-.16.62-.32,1.24-.48,1.86M81.41,98.23c.33-1.24.68-2.46,1.07-3.68-.39,1.21-.74,2.44-1.07,3.68M82.74,93.78c.27-.83.56-1.66.86-2.49-.3.82-.59,1.65-.86,2.49M83.6,91.3c.3-.82.61-1.64.93-2.45-.32.81-.64,1.63-.93,2.45M84.89,87.95c.32-.77.65-1.54.99-2.3-.34.76-.67,1.53-.99,2.3M85.88,85.65c.44-1,.91-1.98,1.39-2.96-.48.98-.95,1.96-1.39,2.96M87.65,81.95c.5-.98,1.01-1.95,1.54-2.91-.53.96-1.04,1.93-1.54,2.91M89.19,79.05c.35-.64.71-1.27,1.08-1.9-.37.63-.73,1.26-1.08,1.9M90.52,76.71c.51-.84,1.03-1.68,1.56-2.5-.53.82-1.05,1.66-1.56,2.5M92.08,74.2c.53-.82,1.08-1.64,1.64-2.45-.56.81-1.11,1.62-1.64,2.45M94.15,71.16c.98-1.38,2-2.73,3.05-4.05-1.06,1.32-2.07,2.67-3.05,4.05M97.21,67.11c1.43-1.79,2.94-3.52,4.51-5.19-1.57,1.67-3.08,3.4-4.51,5.19M102.11,61.5c1.76-1.84,3.59-3.6,5.51-5.27-1.91,1.68-3.75,3.44-5.51,5.27M107.62,56.23c1.14-.99,2.3-1.96,3.48-2.89-1.19.93-2.35,1.9-3.48,2.89M111.39,53.11c1.68-1.31,3.4-2.55,5.17-3.73-1.77,1.18-3.49,2.42-5.17,3.73M116.56,49.38c1.67-1.12,3.39-2.17,5.14-3.17-1.75,1-3.47,2.06-5.14,3.17"/>
  <path class="cls-8" d="M163.79,205.71c-22.74,0-43.39-8.91-58.68-23.42,1.53,1.09,2.34,1.65,2.35,1.65,0,0-.67-.48-2.09-1.48,13.79,9.58,30.53,15.21,48.59,15.21,25.22,0,47.88-10.95,63.5-28.35-9.78,16.19-24.77,28.86-42.66,35.69-3.6.46-7.27.7-11,.7M229.71,125.28h0M78.48,120.42h0M78.48,120.4h0M129.1,42.47s.08-.03.12-.05c1.36-.6,2.75-1.18,4.14-1.71h0c-1.44.55-2.86,1.14-4.26,1.76M133.37,40.7c.42-.05.85-.11,1.27-.15-.15.02-.31.04-.46.05-.27.03-.54.07-.81.1M143.44,39.98c.32,0,.63,0,.95,0-.22,0-.45,0-.67,0-.09,0-.19,0-.28,0"/>
  <path class="cls-2" d="M285.57,268.97h3.3c-.12-.71-.21-1.43-.27-2.18-.06-.74-.09-1.48-.09-2.22v-8.9c0-.78-.09-1.51-.27-2.18-.18-.67-.5-1.26-.95-1.76-.45-.5-1.06-.9-1.83-1.19s-1.75-.44-2.95-.44c-1.98,0-3.5.41-4.56,1.23-1.06.82-1.63,2.27-1.7,4.34h3.26c-.1-.98.1-1.77.6-2.38.5-.61,1.26-.92,2.29-.92.81,0,1.42.15,1.85.46.43.31.74.7.93,1.19.2.49.3,1.04.33,1.65.02.61.02,1.22,0,1.83-1.05-.02-2.15,0-3.3.07-1.15.07-2.2.29-3.15.66-.95.37-1.73.95-2.34,1.74-.61.79-.91,1.89-.91,3.28,0,.88.08,1.69.24,2.44.16.75.43,1.39.82,1.92.39.54.91.96,1.56,1.26.65.31,1.46.46,2.44.46,1.17,0,2.12-.24,2.86-.71.73-.48,1.33-1.25,1.79-2.33h.07v2.67h0ZM285.28,263.4c-.22.93-.52,1.65-.9,2.16-.38.51-.81.86-1.28,1.04-.48.18-.95.27-1.41.27-1,0-1.73-.34-2.2-1.02-.46-.68-.7-1.48-.7-2.38,0-.98.21-1.72.64-2.22.43-.5.97-.86,1.63-1.08.66-.22,1.39-.34,2.18-.37.79-.02,1.54-.04,2.25-.04.07,1.49,0,2.7-.22,3.63h0ZM307.4,268.97v-12.82c0-.9-.07-1.73-.22-2.47-.15-.74-.4-1.39-.77-1.92-.37-.54-.87-.95-1.52-1.23-.65-.28-1.46-.42-2.43-.42-1.2,0-2.17.2-2.93.59-.76.39-1.43,1.11-2.01,2.16h-.15v-2.38h-3.19c.05.64.09,1.28.13,1.92.04.65.05,1.29.05,1.92v14.65h3v-10.95c0-.63.04-1.28.13-1.92.09-.65.26-1.23.53-1.76.27-.52.65-.95,1.14-1.28.49-.33,1.15-.49,1.98-.49.64,0,1.17.09,1.59.28.43.18.76.44,1.01.77.24.33.41.71.51,1.15.1.44.15.9.15,1.39v12.82h3ZM322.45,252.34h-.11c-.51-.73-1.1-1.29-1.76-1.67-.66-.38-1.43-.57-2.31-.57-1.49,0-2.65.3-3.48.9-.83.6-1.44,1.37-1.83,2.32-.39.95-.62,2.02-.7,3.21-.07,1.18-.11,2.35-.11,3.5,0,2.03.17,3.65.51,4.87.34,1.22.79,2.16,1.35,2.82.56.66,1.2,1.09,1.92,1.3.72.21,1.45.31,2.18.31.98,0,1.8-.21,2.47-.64.67-.43,1.26-1.07,1.78-1.92h.07v2.2h3v-26.44h-3v9.82h0ZM322.4,261.77c-.04.94-.16,1.79-.37,2.54-.21.76-.54,1.37-1.01,1.85-.46.48-1.11.71-1.94.71-.95,0-1.68-.22-2.18-.68-.5-.45-.87-1.01-1.12-1.69-.24-.67-.38-1.4-.42-2.2-.04-.79-.05-1.54-.05-2.25,0-1.24.04-2.33.11-3.26.07-.93.24-1.71.49-2.34.26-.64.63-1.11,1.12-1.43.49-.32,1.13-.48,1.94-.48s1.48.22,1.94.66c.46.44.81.98,1.04,1.63.23.65.37,1.34.42,2.09.05.75.07,1.42.07,2.03,0,.93-.02,1.86-.05,2.8h0ZM348.27,268.97c.76,0,1.59-.07,2.51-.2.92-.13,1.78-.46,2.58-.97.8-.51,1.48-1.26,2.03-2.25.55-.99.82-2.33.82-4.01,0-1.83-.43-3.29-1.28-4.38-.86-1.09-2.23-1.74-4.14-1.96v-.18c1.71-.39,2.89-1.12,3.55-2.18.66-1.06.99-2.42.99-4.08,0-.12-.01-.31-.04-.57-.03-.26-.07-.54-.15-.86-.07-.32-.18-.65-.33-1.01-.15-.35-.33-.71-.55-1.08-.24-.37-.52-.71-.82-1.04-.3-.33-.68-.62-1.12-.86-.44-.24-.98-.44-1.63-.59-.65-.15-1.42-.22-2.33-.22h-8.61v26.44h8.5ZM343.15,256.59h3.59c.85,0,1.65.06,2.4.18.74.12,1.39.36,1.92.71.54.35.96.85,1.26,1.5.31.65.46,1.5.46,2.55,0,.49-.09.99-.26,1.52-.17.52-.45,1.01-.84,1.45-.39.44-.89.81-1.5,1.1-.61.29-1.37.44-2.27.44h-4.76v-9.45h0ZM343.15,245.46h4.76c1.42,0,2.45.39,3.1,1.17.65.78.97,1.72.97,2.82,0,1.3-.32,2.31-.97,3.06-.65.74-1.63,1.13-2.95,1.15h-4.91v-8.2h0ZM374.83,260.69v-1.57c0-1.54-.1-2.87-.29-3.99-.2-1.12-.54-2.06-1.03-2.8-.49-.74-1.16-1.3-2.01-1.67-.85-.37-1.94-.55-3.26-.55-1.61,0-2.88.26-3.81.79-.93.52-1.63,1.23-2.11,2.12-.48.89-.78,1.94-.92,3.15-.13,1.21-.2,2.48-.2,3.83,0,2.05.18,3.69.55,4.91.37,1.22.87,2.16,1.5,2.82.63.66,1.38,1.09,2.23,1.3.85.21,1.77.31,2.75.31,1.95,0,3.51-.48,4.67-1.43,1.16-.95,1.75-2.47,1.78-4.54h-3.3c-.02.46-.11.91-.26,1.34-.15.43-.35.8-.62,1.12-.27.32-.6.57-.99.77-.39.2-.84.29-1.35.29-.59,0-1.11-.08-1.57-.24-.46-.16-.86-.46-1.17-.92-.32-.45-.56-1.08-.73-1.89-.17-.81-.26-1.85-.26-3.15h10.4ZM364.42,258.42c0-1.27.1-2.3.29-3.09.2-.79.45-1.41.77-1.85.32-.44.68-.73,1.1-.88.41-.15.87-.22,1.35-.22.54,0,1.04.06,1.5.18.46.12.86.4,1.17.82.32.43.57,1.04.75,1.83.18.79.27,1.86.27,3.2h-7.22ZM380.94,250.48h-3.48l6.26,18.5-2.09,6.99h3.11l8.39-25.49h-3.26l-4.43,15.05h-.07l-4.43-15.05h0ZM405.33,269.03c.85-.21,1.6-.64,2.23-1.3.63-.66,1.14-1.6,1.5-2.82.37-1.22.55-2.86.55-4.91,0-1.34-.07-2.62-.2-3.83-.13-1.21-.44-2.26-.92-3.15-.48-.89-1.18-1.6-2.11-2.12-.93-.52-2.2-.79-3.81-.79s-2.88.26-3.81.79c-.93.52-1.63,1.23-2.11,2.12-.48.89-.78,1.94-.92,3.15-.13,1.21-.2,2.48-.2,3.83,0,2.05.18,3.69.55,4.91.37,1.22.87,2.16,1.5,2.82.64.66,1.38,1.09,2.23,1.3.85.21,1.77.31,2.75.31s1.89-.1,2.75-.31h0ZM400.66,266.44c-.5-.29-.9-.76-1.19-1.39s-.49-1.47-.6-2.51c-.11-1.04-.17-2.31-.17-3.83,0-1.27.09-2.3.27-3.09.18-.79.45-1.42.79-1.87.34-.45.75-.76,1.23-.93.48-.17,1.01-.26,1.59-.26s1.12.09,1.59.26c.48.17.89.48,1.23.93.34.45.6,1.07.79,1.87.18.79.27,1.83.27,3.09,0,1.51-.05,2.79-.17,3.83-.11,1.04-.31,1.87-.6,2.51s-.69,1.1-1.19,1.39c-.5.29-1.14.44-1.92.44s-1.42-.15-1.92-.44h0ZM427.42,268.97v-12.82c0-.9-.07-1.73-.22-2.47-.15-.74-.4-1.39-.77-1.92-.37-.54-.87-.95-1.52-1.23-.65-.28-1.46-.42-2.44-.42-1.2,0-2.17.2-2.93.59-.76.39-1.43,1.11-2.01,2.16h-.15v-2.38h-3.19c.05.64.09,1.28.13,1.92.04.65.06,1.29.06,1.92v14.65h3v-10.95c0-.63.04-1.28.13-1.92.09-.65.26-1.23.53-1.76.27-.52.65-.95,1.14-1.28.49-.33,1.15-.49,1.98-.49.63,0,1.17.09,1.59.28.43.18.76.44,1.01.77.24.33.41.71.51,1.15.1.44.15.9.15,1.39v12.82h3ZM442.47,252.34h-.11c-.51-.73-1.1-1.29-1.76-1.67-.66-.38-1.43-.57-2.31-.57-1.49,0-2.65.3-3.48.9-.83.6-1.44,1.37-1.83,2.32-.39.95-.62,2.02-.7,3.21-.07,1.18-.11,2.35-.11,3.5,0,2.03.17,3.65.51,4.87.34,1.22.79,2.16,1.35,2.82.56.66,1.2,1.09,1.92,1.3.72.21,1.45.31,2.18.31.98,0,1.8-.21,2.47-.64.67-.43,1.26-1.07,1.78-1.92h.07v2.2h3v-26.44h-3v9.82h0ZM442.41,261.77c-.04.94-.16,1.79-.37,2.54-.21.76-.54,1.37-1.01,1.85-.46.48-1.11.71-1.94.71-.95,0-1.68-.22-2.18-.68-.5-.45-.87-1.01-1.12-1.69-.24-.67-.38-1.4-.42-2.2-.04-.79-.05-1.54-.05-2.25,0-1.24.04-2.33.11-3.26.07-.93.24-1.71.49-2.34.26-.64.63-1.11,1.12-1.43.49-.32,1.14-.48,1.94-.48s1.48.22,1.94.66c.46.44.81.98,1.04,1.63.23.65.37,1.34.42,2.09.05.75.07,1.42.07,2.03,0,.93-.02,1.86-.05,2.8h0Z"/>
  <path class="cls-2" d="M291.69,203.13v22.63h-.07l-10.29-22.63h-4.76v26.44h3v-22.93h.07l10.44,22.93h4.61v-26.44h-3ZM313.81,221.3v-1.57c0-1.54-.1-2.87-.29-3.99-.2-1.12-.54-2.06-1.03-2.8-.49-.74-1.16-1.3-2.01-1.67-.86-.37-1.94-.55-3.26-.55-1.61,0-2.88.26-3.81.79-.93.52-1.63,1.23-2.11,2.12-.48.89-.78,1.94-.92,3.15-.13,1.21-.2,2.48-.2,3.83,0,2.05.18,3.69.55,4.91.37,1.22.87,2.16,1.5,2.82.63.66,1.38,1.09,2.23,1.3.85.21,1.77.31,2.75.31,1.95,0,3.51-.48,4.67-1.43,1.16-.95,1.75-2.46,1.78-4.54h-3.3c-.02.46-.11.91-.26,1.34-.15.43-.35.8-.62,1.12s-.6.57-.99.77c-.39.2-.84.29-1.35.29-.59,0-1.11-.08-1.58-.24-.46-.16-.85-.46-1.17-.92-.32-.45-.56-1.08-.73-1.89-.17-.81-.26-1.85-.26-3.15h10.4ZM303.41,219.03c0-1.27.1-2.3.29-3.1.2-.79.45-1.41.77-1.85.32-.44.68-.73,1.1-.88.42-.15.87-.22,1.36-.22.54,0,1.04.06,1.5.18.46.12.85.4,1.17.82.32.43.57,1.04.75,1.83.18.79.27,1.86.27,3.21h-7.21ZM328.57,213.35h-.07c-.42-.9-.99-1.57-1.74-2-.74-.43-1.61-.64-2.58-.64-.37,0-.88.07-1.54.22-.66.15-1.3.52-1.92,1.12-.62.6-1.17,1.5-1.63,2.71-.46,1.21-.7,2.88-.7,5,0,1.37.08,2.65.24,3.85.16,1.2.46,2.23.9,3.11.44.88,1.05,1.57,1.83,2.09.78.51,1.8.77,3.04.77.81,0,1.59-.2,2.34-.6.76-.4,1.33-.97,1.72-1.7h.11v3.85c0,.95-.27,1.72-.82,2.31-.55.59-1.35.88-2.4.88-.83,0-1.5-.23-2.01-.7-.51-.46-.78-1.12-.81-1.98h-3.37c-.07.86.04,1.59.33,2.22.29.62.7,1.14,1.23,1.54.52.4,1.14.7,1.83.9.7.2,1.43.29,2.22.29,1.03,0,1.95-.07,2.78-.22.83-.15,1.54-.41,2.14-.79.6-.38,1.06-.9,1.39-1.57.33-.67.49-1.52.49-2.55v-20.36h-3v2.27h0ZM328.61,222.38c-.03.79-.15,1.54-.37,2.23-.22.7-.57,1.28-1.04,1.76-.48.48-1.17.71-2.07.71-.56,0-1.06-.1-1.5-.31-.44-.21-.82-.59-1.14-1.14-.32-.55-.56-1.29-.71-2.23-.16-.94-.24-2.15-.24-3.64,0-.61.02-1.29.07-2.05.05-.76.18-1.47.4-2.14.22-.67.57-1.23,1.04-1.68.48-.45,1.14-.68,2-.68.95,0,1.67.24,2.16.71.49.48.84,1.07,1.04,1.78.21.71.32,1.47.35,2.29.02.82.04,1.57.04,2.25,0,.64-.01,1.35-.04,2.14h0ZM346.63,229.57h3.3c-.12-.71-.21-1.43-.27-2.18-.06-.74-.09-1.48-.09-2.21v-8.9c0-.78-.09-1.51-.27-2.18-.18-.67-.5-1.26-.95-1.76-.45-.5-1.06-.9-1.83-1.19-.77-.29-1.75-.44-2.95-.44-1.98,0-3.5.41-4.56,1.23-1.06.82-1.63,2.26-1.7,4.34h3.26c-.1-.98.1-1.77.6-2.38.5-.61,1.26-.92,2.29-.92.81,0,1.42.15,1.85.46.43.3.74.7.93,1.19.2.49.3,1.04.33,1.65.02.61.02,1.22,0,1.83-1.05-.02-2.15,0-3.3.07-1.15.07-2.2.29-3.15.66-.95.37-1.73.95-2.34,1.74-.61.79-.92,1.89-.92,3.28,0,.88.08,1.69.24,2.44.16.74.43,1.39.82,1.92.39.54.91.96,1.56,1.26.65.3,1.46.46,2.44.46,1.17,0,2.12-.24,2.86-.71.73-.48,1.33-1.25,1.79-2.32h.07v2.67h0ZM346.33,224.01c-.22.93-.52,1.65-.9,2.16-.38.51-.81.86-1.28,1.04-.48.18-.95.27-1.41.27-1,0-1.73-.34-2.2-1.03-.46-.68-.7-1.48-.7-2.38,0-.98.21-1.71.64-2.22.43-.5.97-.86,1.63-1.08.66-.22,1.39-.34,2.18-.37.79-.02,1.54-.04,2.25-.04.07,1.49,0,2.7-.22,3.63h0ZM352.71,211.08v2.27h3.04v13.15c0,1.07.33,1.89.99,2.45.66.56,1.71.84,3.15.84.49,0,.98-.04,1.48-.11.5-.07,1-.13,1.48-.18v-2.31c-.34.05-.62.09-.84.11-.22.02-.39.04-.51.04-.68,0-1.21-.08-1.59-.26s-.65-.38-.82-.64c-.17-.26-.27-.54-.29-.86-.02-.32-.04-.62-.04-.92v-11.32h4.03v-2.27h-4.03v-4.91l-3,1.35v3.55h-3.04ZM368.56,211.08h-3v18.49h3v-18.49h0ZM365.38,206.36h3.37v-3.22h-3.37v3.22h0ZM383.03,229.63c.85-.21,1.6-.64,2.23-1.3.63-.66,1.13-1.6,1.5-2.82.37-1.22.55-2.86.55-4.91,0-1.34-.07-2.62-.2-3.83-.13-1.21-.44-2.26-.92-3.15-.48-.89-1.18-1.6-2.11-2.12-.93-.52-2.2-.79-3.81-.79s-2.88.26-3.81.79-1.63,1.23-2.11,2.12c-.48.89-.78,1.94-.92,3.15-.13,1.21-.2,2.48-.2,3.83,0,2.05.18,3.69.55,4.91.37,1.22.87,2.16,1.5,2.82.63.66,1.38,1.09,2.23,1.3.85.21,1.77.31,2.75.31s1.89-.1,2.75-.31h0ZM378.36,227.05c-.5-.29-.9-.76-1.19-1.39-.29-.64-.49-1.47-.6-2.51-.11-1.04-.17-2.31-.17-3.83,0-1.27.09-2.3.27-3.09.18-.79.44-1.42.79-1.87.34-.45.75-.76,1.23-.93.48-.17,1.01-.26,1.59-.26s1.12.09,1.59.26c.48.17.88.48,1.23.93.34.45.61,1.07.79,1.87.18.79.27,1.83.27,3.09,0,1.51-.06,2.79-.16,3.83-.11,1.04-.31,1.87-.61,2.51-.29.63-.69,1.1-1.19,1.39-.5.29-1.14.44-1.92.44s-1.42-.15-1.92-.44h0ZM405.11,229.57v-12.82c0-.9-.07-1.73-.22-2.47-.15-.74-.4-1.39-.77-1.92-.37-.54-.87-.95-1.52-1.23-.65-.28-1.46-.42-2.44-.42-1.2,0-2.17.2-2.93.59-.76.39-1.43,1.11-2.01,2.16h-.15v-2.38h-3.19c.05.63.09,1.28.13,1.92.04.65.05,1.29.05,1.92v14.65h3v-10.95c0-.63.04-1.28.13-1.92.09-.65.26-1.23.53-1.76.27-.52.65-.95,1.14-1.28.49-.33,1.15-.5,1.98-.5.64,0,1.17.09,1.59.28.43.18.76.44,1.01.77.24.33.42.71.51,1.15.1.44.15.9.15,1.39v12.82h3ZM421.45,211.08h-3v18.49h3v-18.49h0ZM418.26,206.36h3.37v-3.22h-3.37v3.22h0ZM439.68,229.57v-12.82c0-.9-.07-1.73-.22-2.47-.15-.74-.4-1.39-.77-1.92-.37-.54-.87-.95-1.52-1.23-.65-.28-1.46-.42-2.44-.42-1.2,0-2.17.2-2.93.59-.76.39-1.43,1.11-2.01,2.16h-.15v-2.38h-3.19c.05.63.09,1.28.13,1.92.04.65.05,1.29.05,1.92v14.65h3v-10.95c0-.63.04-1.28.13-1.92.08-.65.26-1.23.53-1.76.27-.52.65-.95,1.14-1.28.49-.33,1.15-.5,1.98-.5.63,0,1.16.09,1.59.28.43.18.76.44,1.01.77.24.33.41.71.51,1.15.1.44.15.9.15,1.39v12.82h3ZM466.49,229.57v-2.93h-9.71v-23.51h-3.37v26.44h13.07ZM478.87,229.57h3.3c-.12-.71-.21-1.43-.27-2.18-.06-.74-.09-1.48-.09-2.21v-8.9c0-.78-.09-1.51-.27-2.18-.18-.67-.5-1.26-.95-1.76-.45-.5-1.06-.9-1.83-1.19-.77-.29-1.75-.44-2.95-.44-1.98,0-3.5.41-4.56,1.23-1.06.82-1.63,2.26-1.7,4.34h3.26c-.1-.98.1-1.77.6-2.38.5-.61,1.26-.92,2.29-.92.81,0,1.42.15,1.85.46.43.3.74.7.93,1.19.2.49.31,1.04.33,1.65.02.61.02,1.22,0,1.83-1.05-.02-2.15,0-3.3.07-1.15.07-2.2.29-3.15.66-.95.37-1.73.95-2.34,1.74-.61.79-.92,1.89-.92,3.28,0,.88.08,1.69.24,2.44.16.74.43,1.39.82,1.92.39.54.91.96,1.56,1.26.65.3,1.46.46,2.44.46,1.17,0,2.12-.24,2.86-.71.73-.48,1.33-1.25,1.79-2.32h.07v2.67h0ZM478.58,224.01c-.22.93-.52,1.65-.9,2.16-.38.51-.81.86-1.28,1.04-.48.18-.95.27-1.41.27-1,0-1.73-.34-2.2-1.03-.46-.68-.7-1.48-.7-2.38,0-.98.21-1.71.64-2.22.43-.5.97-.86,1.63-1.08.66-.22,1.38-.34,2.18-.37.79-.02,1.54-.04,2.25-.04.07,1.49,0,2.7-.22,3.63h0ZM500.7,229.57v-12.82c0-.9-.07-1.73-.22-2.47-.15-.74-.4-1.39-.77-1.92-.37-.54-.87-.95-1.52-1.23-.65-.28-1.46-.42-2.43-.42-1.2,0-2.17.2-2.93.59-.76.39-1.43,1.11-2.01,2.16h-.15v-2.38h-3.19c.05.63.09,1.28.13,1.92.04.65.06,1.29.06,1.92v14.65h3v-10.95c0-.63.04-1.28.13-1.92.09-.65.26-1.23.53-1.76.27-.52.65-.95,1.14-1.28.49-.33,1.15-.5,1.98-.5.64,0,1.17.09,1.59.28.43.18.76.44,1.01.77.24.33.41.71.51,1.15.1.44.15.9.15,1.39v12.82h3ZM515.75,213.35h-.07c-.42-.9-.99-1.57-1.74-2-.74-.43-1.6-.64-2.58-.64-.37,0-.88.07-1.54.22-.66.15-1.3.52-1.92,1.12-.62.6-1.17,1.5-1.63,2.71-.46,1.21-.7,2.88-.7,5,0,1.37.08,2.65.24,3.85.16,1.2.46,2.23.9,3.11.44.88,1.05,1.57,1.83,2.09.78.51,1.79.77,3.04.77.81,0,1.59-.2,2.34-.6.76-.4,1.33-.97,1.72-1.7h.11v3.85c0,.95-.27,1.72-.82,2.31-.55.59-1.35.88-2.4.88-.83,0-1.5-.23-2.01-.7-.51-.46-.78-1.12-.81-1.98h-3.37c-.07.86.04,1.59.33,2.22.29.62.7,1.14,1.23,1.54.53.4,1.14.7,1.83.9.7.2,1.43.29,2.22.29,1.03,0,1.95-.07,2.78-.22.83-.15,1.54-.41,2.14-.79.6-.38,1.06-.9,1.39-1.57.33-.67.49-1.52.49-2.55v-20.36h-3v2.27h0ZM515.79,222.38c-.03.79-.15,1.54-.37,2.23-.22.7-.57,1.28-1.04,1.76-.48.48-1.17.71-2.07.71-.56,0-1.06-.1-1.5-.31-.44-.21-.82-.59-1.14-1.14-.32-.55-.56-1.29-.72-2.23-.16-.94-.24-2.15-.24-3.64,0-.61.02-1.29.07-2.05.05-.76.18-1.47.4-2.14.22-.67.57-1.23,1.04-1.68.48-.45,1.14-.68,2-.68.95,0,1.67.24,2.16.71.49.48.84,1.07,1.04,1.78.21.71.32,1.47.35,2.29.02.82.04,1.57.04,2.25,0,.64-.01,1.35-.04,2.14h0ZM534.17,223.38c0,.78-.12,1.44-.35,1.98-.23.54-.52.98-.86,1.32-.34.34-.73.59-1.17.75-.44.16-.85.24-1.24.24-1.07,0-1.87-.34-2.38-1.03-.51-.68-.77-1.59-.77-2.72v-12.85h-3v14.1c0,1.59.43,2.78,1.28,3.57.85.79,2.09,1.19,3.7,1.19.98,0,1.88-.22,2.71-.66.83-.44,1.49-1.09,1.98-1.94h.11v2.23h3.19c-.05-.63-.09-1.27-.13-1.92-.04-.65-.05-1.29-.05-1.92v-14.65h-3v12.3h0ZM552.12,229.57h3.3c-.12-.71-.21-1.43-.27-2.18-.06-.74-.09-1.48-.09-2.21v-8.9c0-.78-.09-1.51-.27-2.18-.18-.67-.5-1.26-.95-1.76-.45-.5-1.06-.9-1.83-1.19s-1.75-.44-2.95-.44c-1.98,0-3.5.41-4.56,1.23-1.06.82-1.63,2.26-1.7,4.34h3.26c-.1-.98.1-1.77.6-2.38.5-.61,1.26-.92,2.29-.92.81,0,1.42.15,1.85.46.43.3.74.7.93,1.19.2.49.31,1.04.33,1.65.02.61.02,1.22,0,1.83-1.05-.02-2.15,0-3.3.07-1.15.07-2.2.29-3.15.66-.95.37-1.73.95-2.34,1.74-.61.79-.92,1.89-.92,3.28,0,.88.08,1.69.24,2.44.16.74.43,1.39.82,1.92.39.54.91.96,1.56,1.26.65.3,1.46.46,2.44.46,1.17,0,2.12-.24,2.86-.71.73-.48,1.33-1.25,1.79-2.32h.07v2.67h0ZM551.82,224.01c-.22.93-.52,1.65-.9,2.16-.38.51-.81.86-1.28,1.04-.48.18-.95.27-1.41.27-1,0-1.73-.34-2.2-1.03-.46-.68-.7-1.48-.7-2.38,0-.98.21-1.71.64-2.22.43-.5.97-.86,1.63-1.08.66-.22,1.39-.34,2.18-.37.79-.02,1.54-.04,2.25-.04.07,1.49,0,2.7-.22,3.63h0ZM570.68,213.35h-.07c-.41-.9-.99-1.57-1.74-2-.74-.43-1.6-.64-2.58-.64-.37,0-.88.07-1.54.22-.66.15-1.3.52-1.92,1.12-.62.6-1.17,1.5-1.63,2.71-.46,1.21-.7,2.88-.7,5,0,1.37.08,2.65.24,3.85.16,1.2.46,2.23.9,3.11.44.88,1.05,1.57,1.83,2.09.78.51,1.79.77,3.04.77.81,0,1.59-.2,2.34-.6.76-.4,1.33-.97,1.72-1.7h.11v3.85c0,.95-.27,1.72-.82,2.31-.55.59-1.35.88-2.4.88-.83,0-1.5-.23-2.01-.7-.51-.46-.78-1.12-.81-1.98h-3.37c-.07.86.04,1.59.33,2.22.29.62.7,1.14,1.23,1.54.52.4,1.13.7,1.83.9.7.2,1.43.29,2.22.29,1.03,0,1.95-.07,2.78-.22.83-.15,1.54-.41,2.14-.79.6-.38,1.06-.9,1.39-1.57.33-.67.49-1.52.49-2.55v-20.36h-3v2.27h0ZM570.72,222.38c-.03.79-.15,1.54-.37,2.23-.22.7-.57,1.28-1.04,1.76-.48.48-1.17.71-2.07.71-.56,0-1.06-.1-1.5-.31-.44-.21-.82-.59-1.14-1.14-.32-.55-.56-1.29-.71-2.23-.16-.94-.24-2.15-.24-3.64,0-.61.02-1.29.07-2.05.05-.76.18-1.47.4-2.14.22-.67.57-1.23,1.04-1.68.48-.45,1.14-.68,2-.68.95,0,1.67.24,2.16.71.49.48.84,1.07,1.04,1.78.21.71.32,1.47.35,2.29.02.82.04,1.57.04,2.25,0,.64-.01,1.35-.04,2.14h0ZM592.55,221.3v-1.57c0-1.54-.1-2.87-.29-3.99-.2-1.12-.54-2.06-1.03-2.8-.49-.74-1.16-1.3-2.01-1.67-.86-.37-1.94-.55-3.26-.55-1.61,0-2.88.26-3.81.79-.93.52-1.63,1.23-2.1,2.12-.48.89-.78,1.94-.92,3.15-.14,1.21-.2,2.48-.2,3.83,0,2.05.18,3.69.55,4.91.37,1.22.87,2.16,1.5,2.82.64.66,1.38,1.09,2.23,1.3.86.21,1.77.31,2.75.31,1.95,0,3.51-.48,4.67-1.43,1.16-.95,1.75-2.46,1.78-4.54h-3.3c-.02.46-.11.91-.26,1.34-.15.43-.35.8-.62,1.12-.27.32-.6.57-.99.77-.39.2-.84.29-1.35.29-.59,0-1.11-.08-1.57-.24-.46-.16-.86-.46-1.17-.92-.32-.45-.56-1.08-.73-1.89-.17-.81-.26-1.85-.26-3.15h10.4ZM582.15,219.03c0-1.27.1-2.3.29-3.1.2-.79.45-1.41.77-1.85.32-.44.68-.73,1.1-.88.41-.15.87-.22,1.35-.22.54,0,1.04.06,1.5.18.46.12.85.4,1.17.82.32.43.57,1.04.75,1.83.18.79.27,1.86.27,3.21h-7.22Z"/>
  <path class="cls-2" d="M308.59,126.12v47.76h-.15l-21.72-47.76h-10.05v55.8h6.34v-48.38h.15l22.02,48.38h9.74v-55.8h-6.34ZM354.55,164.45v-3.32c0-3.24-.21-6.05-.62-8.42-.41-2.37-1.13-4.34-2.16-5.91-1.03-1.57-2.45-2.74-4.25-3.52-1.8-.77-4.1-1.16-6.88-1.16-3.4,0-6.08.55-8.04,1.66-1.96,1.11-3.44,2.6-4.44,4.48-1.01,1.88-1.65,4.1-1.93,6.65-.28,2.55-.43,5.24-.43,8.08,0,4.33.39,7.78,1.16,10.35.77,2.58,1.83,4.56,3.17,5.95,1.34,1.39,2.91,2.31,4.71,2.74,1.8.44,3.73.66,5.8.66,4.12,0,7.41-1.01,9.85-3.01,2.45-2.01,3.7-5.2,3.75-9.58h-6.95c-.05.98-.23,1.92-.54,2.82-.31.9-.75,1.69-1.31,2.36-.57.67-1.26,1.21-2.09,1.62-.83.41-1.78.62-2.86.62-1.24,0-2.35-.17-3.32-.5-.98-.33-1.8-.98-2.47-1.93-.67-.95-1.19-2.28-1.55-3.98-.36-1.7-.54-3.91-.54-6.65h21.95ZM332.61,159.66c0-2.68.2-4.85.62-6.53.41-1.67.95-2.98,1.62-3.9.67-.93,1.44-1.54,2.32-1.85.88-.31,1.83-.46,2.86-.46,1.13,0,2.19.13,3.17.39.98.26,1.8.84,2.47,1.74.67.9,1.2,2.19,1.58,3.86.39,1.68.58,3.93.58,6.76h-15.22ZM385.7,147.68h-.15c-.88-1.91-2.1-3.31-3.67-4.21-1.57-.9-3.39-1.35-5.45-1.35-.77,0-1.85.15-3.24.46-1.39.31-2.74,1.1-4.06,2.36-1.31,1.26-2.46,3.17-3.44,5.72-.98,2.55-1.47,6.07-1.47,10.55,0,2.89.17,5.59.5,8.11.33,2.53.97,4.71,1.89,6.57.93,1.85,2.21,3.32,3.86,4.4,1.65,1.08,3.79,1.62,6.41,1.62,1.7,0,3.35-.43,4.95-1.28,1.6-.85,2.81-2.05,3.63-3.59h.23v8.11c0,2.01-.58,3.63-1.74,4.87-1.16,1.24-2.85,1.85-5.06,1.85-1.75,0-3.17-.49-4.25-1.47-1.08-.98-1.65-2.37-1.7-4.17h-7.11c-.15,1.8.08,3.36.7,4.68.62,1.31,1.48,2.4,2.59,3.25,1.11.85,2.4,1.48,3.86,1.89,1.47.41,3.03.62,4.68.62,2.16,0,4.12-.15,5.87-.46,1.75-.31,3.26-.86,4.52-1.66,1.26-.8,2.24-1.91,2.94-3.32.7-1.42,1.04-3.21,1.04-5.37v-42.97h-6.34v4.79h0ZM385.77,166.73c-.05,1.67-.31,3.25-.77,4.71-.46,1.47-1.2,2.7-2.2,3.71-1,1.01-2.46,1.51-4.37,1.51-1.19,0-2.24-.22-3.17-.66-.93-.44-1.73-1.24-2.39-2.4-.67-1.16-1.17-2.73-1.51-4.71-.34-1.98-.5-4.55-.5-7.69,0-1.29.05-2.73.16-4.33.1-1.6.39-3.1.85-4.52.46-1.42,1.2-2.6,2.2-3.55,1.01-.95,2.41-1.43,4.21-1.43,2.01,0,3.53.5,4.56,1.51,1.03,1,1.76,2.25,2.2,3.75.44,1.49.68,3.1.73,4.83.05,1.73.08,3.31.08,4.75,0,1.34-.03,2.85-.08,4.52h0ZM431.99,181.92v-6.18h-20.48v-49.61h-7.11v55.8h27.59ZM458.11,181.92h6.95c-.26-1.49-.45-3.03-.58-4.6-.13-1.57-.19-3.13-.19-4.67v-18.78c0-1.65-.19-3.18-.58-4.6-.39-1.42-1.06-2.65-2.01-3.71-.95-1.06-2.24-1.89-3.86-2.51-1.62-.62-3.7-.93-6.22-.93-4.17,0-7.38.86-9.62,2.59-2.24,1.73-3.44,4.78-3.59,9.16h6.88c-.21-2.06.22-3.74,1.27-5.02,1.05-1.29,2.67-1.93,4.83-1.93,1.7,0,3,.32,3.9.97.9.65,1.56,1.48,1.97,2.51.41,1.03.64,2.19.7,3.48.05,1.29.05,2.58,0,3.86-2.22-.05-4.53,0-6.96.16-2.42.15-4.64.62-6.65,1.39-2.01.77-3.66,2-4.95,3.67-1.29,1.68-1.93,3.98-1.93,6.92,0,1.85.17,3.57.5,5.14.33,1.57.91,2.92,1.74,4.06.82,1.13,1.92,2.02,3.28,2.67,1.36.64,3.08.97,5.14.97,2.47,0,4.48-.5,6.03-1.51,1.54-1,2.81-2.64,3.79-4.91h.15v5.64h0ZM457.49,170.17c-.46,1.96-1.1,3.48-1.89,4.56-.8,1.08-1.7,1.82-2.7,2.2-1.01.39-2,.58-2.98.58-2.11,0-3.66-.72-4.64-2.16-.98-1.44-1.47-3.12-1.47-5.02,0-2.06.45-3.62,1.35-4.68.9-1.05,2.05-1.82,3.44-2.28,1.39-.46,2.92-.72,4.6-.77,1.67-.05,3.26-.08,4.75-.08.15,3.14,0,5.69-.46,7.65h0ZM495.26,181.92c1.6,0,3.36-.14,5.29-.43,1.93-.28,3.75-.97,5.45-2.05,1.7-1.08,3.13-2.67,4.29-4.75,1.16-2.09,1.74-4.91,1.74-8.46,0-3.86-.9-6.94-2.71-9.24-1.8-2.29-4.71-3.67-8.73-4.13v-.39c3.61-.82,6.1-2.36,7.5-4.6,1.39-2.24,2.09-5.11,2.09-8.62,0-.26-.03-.66-.08-1.2-.05-.54-.16-1.15-.31-1.82-.16-.67-.39-1.38-.7-2.12-.31-.75-.7-1.51-1.16-2.28-.52-.77-1.1-1.51-1.74-2.2-.65-.69-1.43-1.3-2.36-1.82-.93-.51-2.07-.93-3.44-1.24-1.37-.31-3-.46-4.91-.46h-18.16v55.8h17.93ZM484.45,155.8h7.57c1.8,0,3.49.13,5.06.39,1.57.26,2.92.76,4.06,1.51,1.13.75,2.02,1.8,2.67,3.17.64,1.36.96,3.16.96,5.37,0,1.03-.18,2.1-.54,3.21-.36,1.11-.95,2.13-1.78,3.05-.83.93-1.88,1.7-3.17,2.32-1.29.62-2.89.93-4.79.93h-10.05v-19.94h0ZM484.45,132.31h10.05c2.99,0,5.16.83,6.53,2.47,1.37,1.65,2.05,3.63,2.05,5.95,0,2.73-.68,4.88-2.05,6.45-1.36,1.57-3.44,2.38-6.22,2.43h-10.36v-17.31h0Z"/>
  <path class="cls-7" d="M105.2,182.34s-.08-.05-.11-.08c-1.16-1.1-2.29-2.24-3.39-3.4-.1-.1-.19-.2-.29-.3,1.19,1.27,2.41,2.51,3.67,3.71.04.03.08.05.12.08M101.4,178.54s-.03-.04-.05-.05c.02.02.03.04.05.05M101.17,178.3c-2.04-2.2-3.96-4.51-5.76-6.92,1.77,2.37,3.65,4.64,5.65,6.8.04.04.07.08.11.12M217.51,169.26c.06-.09.11-.19.17-.28,7.64-12.78,12.03-27.72,12.03-43.69,0,0,0,0,0,0,0,16.09-4.46,31.13-12.2,43.98,0,0,0,0,0,0M78.51,118.39s0,0,0,0c0,0,0,0,0,0M78.52,117.79c0-.09,0-.18,0-.27,0,.09,0,.18,0,.27M78.58,116.4s0-.08,0-.12c0,.04,0,.08,0,.12M80.83,68.41c14.93-24.78,42.09-41.35,73.13-41.35,22.76,0,43.44,8.91,58.74,23.44-13.85-9.7-30.71-15.4-48.9-15.4-10.73,0-20.99,1.99-30.44,5.61-20.78,2.69-39.21,12.85-52.52,27.7"/>
  <path class="cls-4" d="M105.37,182.46c-.1-.07-.19-.13-.29-.2-1.02-.97-2.01-1.96-2.99-2.98.98,1.03,1.98,2.03,3.02,3.01-.19-.13-.39-.28-.6-.43-21.7-15.46-35.86-40.82-35.86-69.5,0-16.08,4.45-31.12,12.18-43.96,13.3-14.85,31.74-25.01,52.52-27.7-1.39.53-2.77,1.1-4.13,1.71-28.7,12.74-49.06,40.83-50.64,73.86,0,.04,0,.08,0,.12-.02.37-.03.74-.04,1.12,0,.09,0,.18,0,.27,0,.2-.01.4-.02.59,0,0,0,0,0,0-.02.67-.02,1.34-.02,2.01h0s0,0,0,0h0s0,0,0,0c0,0,0,.01,0,.02,0,0,0,0,0-.01,0,0,0,.01,0,.01,0,19.11,6.3,36.74,16.92,50.96,1.8,2.41,3.72,4.72,5.76,6.92.3.32.6.64.9.96h0c-.13-.13-.25-.27-.38-.4,1.1,1.16,2.23,2.3,3.39,3.4.04.03.08.05.11.08.06.04.12.08.17.12M217.51,169.26c.06-.1.11-.19.17-.28-.06.1-.11.19-.17.28h0"/>
  <path class="cls-1" d="M101.7,178.86c-.18-.19-.35-.37-.52-.56-.04-.04-.07-.08-.11-.12.1.1.19.21.29.31.02.02.03.04.05.05,0,0,.01,0,.01.02.1.1.19.2.29.3M217.51,169.26c7.74-12.84,12.2-27.89,12.2-43.98,0,0,0,0,0,0h0s0,0,0,0h0c0-47.11-38.2-85.31-85.31-85.31-3.74,0-7.43.27-11.04.74,0,0,0,0,0,0,0,0,0,0-.01,0,9.46-3.62,19.71-5.61,30.44-5.61,18.19,0,35.06,5.7,48.9,15.4,16.37,15.54,26.57,37.51,26.57,61.87,0,21.86-8.23,41.8-21.76,56.89"/>
  <path class="cls-5" d="M107.46,183.95s-.82-.56-2.35-1.65c-1.03-.98-2.03-1.98-3.02-3.01.97,1.02,1.97,2.01,2.99,2.98.1.07.19.13.29.2,1.42,1,2.1,1.48,2.09,1.48M102.08,179.26c-.3-.32-.6-.64-.9-.96.17.19.35.38.52.56.13.13.25.27.38.4M229.71,125.28h0M78.48,120.42s0,0,0-.01c0,0,0,.01,0,.01h0M78.48,120.4h0s0,0,0,0M129.22,42.41c1.36-.6,2.74-1.17,4.13-1.71,0,0,0,0,.01,0-1.4.53-2.78,1.11-4.14,1.71"/>
</svg>